<?xml version="1.0" encoding="UTF-8"?>
<svg width="318px" height="279px" viewBox="0 0 318 279" version="1.1" xmlns="http://www.w3.org/2000/svg" xmlns:xlink="http://www.w3.org/1999/xlink">
    <!-- Generator: Sketch 55.2 (78181) - https://sketchapp.com -->
    <title>Artboard</title>
    <desc>Created with Sketch.</desc>
    <defs>
        <path d="M310.339746,153.5 L247.910254,261.631052 C242.55127,270.913084 232.64746,276.631052 221.929492,276.631052 L97.0705081,276.631052 C86.3525404,276.631052 76.4487298,270.913084 71.089746,261.631052 L8.66025404,153.5 C3.30127019,144.217968 3.30127019,132.782032 8.66025404,123.5 L71.089746,15.3689481 C76.4487298,6.08691579 86.3525404,0.368948096 97.0705081,0.368948096 L221.929492,0.368948096 C232.64746,0.368948096 242.55127,6.08691579 247.910254,15.3689481 L310.339746,123.5 C315.69873,132.782032 315.69873,144.217968 310.339746,153.5 Z" id="path-1"></path>
    </defs>
    <g id="Artboard" stroke="none" stroke-width="1" fill="none" fill-rule="evenodd">
        <g id="ee-yellow" transform="translate(-1.000000, 1.000000)">
            <mask id="mask-2" fill="white">
                <use xlink:href="#path-1"></use>
            </mask>
            <g id="Mask"></g>
            <g id="SVG-Layer-Copy" mask="url(#mask-2)" fill="#FFE01C" fill-rule="nonzero">
                <g transform="translate(-58.000000, -13.000000)" id="Rectangle">
                    <rect x="0.5" y="0" width="455" height="303"></rect>
                </g>
            </g>
        </g>
        <g id="CALC" transform="translate(74.000000, 55.000000)" fill="#000000" fill-rule="nonzero">
            <path d="M61.0714286,40.5714286 L46.4285714,40.5714286 L46.4285714,25.9285714 C46.4285714,24.3090714 45.1165714,23 43.5,23 C41.8834286,23 40.5714286,24.3090714 40.5714286,25.9285714 L40.5714286,40.5714286 L25.9285714,40.5714286 C24.312,40.5714286 23,41.8805 23,43.5 C23,45.1195 24.312,46.4285714 25.9285714,46.4285714 L40.5714286,46.4285714 L40.5714286,61.0714286 C40.5714286,62.6909286 41.8834286,64 43.5,64 C45.1165714,64 46.4285714,62.6909286 46.4285714,61.0714286 L46.4285714,46.4285714 L61.0714286,46.4285714 C62.688,46.4285714 64,45.1195 64,43.5 C64,41.8805 62.688,40.5714286 61.0714286,40.5714286 Z" id="Path"></path>
            <path d="M142.071429,40 L106.928571,40 C105.312,40 104,41.341 104,43 C104,44.659 105.312,46 106.928571,46 L142.071429,46 C143.688,46 145,44.659 145,43 C145,41.341 143.688,40 142.071429,40 Z" id="Path"></path>
            <path d="M87.9310345,0 L82.0689655,0 L0,0 L0,82.0689655 L0,87.9310345 L0,170 L82.0689655,170 L87.9310345,170 L170,170 L170,87.9310345 L170,82.0689655 L170,0 L87.9310345,0 Z M5.86206897,5.86206897 L82.0689655,5.86206897 L82.0689655,82.0689655 L5.86206897,82.0689655 L5.86206897,5.86206897 Z M5.86206897,164.137931 L5.86206897,87.9310345 L82.0689655,87.9310345 L82.0689655,164.137931 L5.86206897,164.137931 Z M164.137931,164.137931 L87.9310345,164.137931 L87.9310345,87.9310345 L164.137931,87.9310345 L164.137931,164.137931 Z M87.9310345,82.0689655 L87.9310345,5.86206897 L164.137931,5.86206897 L164.137931,82.0689655 L87.9310345,82.0689655 Z" id="Shape"></path>
            <path d="M106.928571,137 L142.071429,137 C143.688,137 145,135.659 145,134 C145,132.341 143.688,131 142.071429,131 L106.928571,131 C105.312,131 104,132.341 104,134 C104,135.659 105.312,137 106.928571,137 Z" id="Path"></path>
            <path d="M106.928571,119 L142.071429,119 C143.688,119 145,117.659 145,116 C145,114.341 143.688,113 142.071429,113 L106.928571,113 C105.312,113 104,114.341 104,116 C104,117.659 105.312,119 106.928571,119 Z" id="Path"></path>
            <path d="M59.1447231,108.855295 C58.004354,107.714902 56.1610975,107.714902 55.0207283,108.855295 L42.5,121.376284 L29.9792717,108.855295 C28.8389025,107.714902 26.995646,107.714902 25.8552769,108.855295 C24.7149077,109.995688 24.7149077,111.838983 25.8552769,112.979375 L38.3760052,125.500365 L25.8552769,138.021354 C24.7149077,139.161747 24.7149077,141.005042 25.8552769,142.145434 C26.4240032,142.714173 27.1706387,143 27.9172743,143 C28.6639098,143 29.4105454,142.714173 29.9792717,142.145434 L42.5,129.624445 L55.0207283,142.145434 C55.5894546,142.714173 56.3360902,143 57.0827257,143 C57.8293613,143 58.5759968,142.714173 59.1447231,142.145434 C60.2850923,141.005042 60.2850923,139.161747 59.1447231,138.021354 L46.6239948,125.500365 L59.1447231,112.979375 C60.2850923,111.838983 60.2850923,109.995688 59.1447231,108.855295 Z" id="Path"></path>
        </g>
    </g>
</svg>