<svg height="279" width="313" xmlns="http://www.w3.org/2000/svg" xmlns:xlink="http://www.w3.org/1999/xlink"><defs><path id="a" d="M310.34 153.5l-62.43 108.131a30 30 0 0 1-25.98 15H97.07a30 30 0 0 1-25.98-15L8.66 153.5a30 30 0 0 1 0-30L71.09 15.369a30 30 0 0 1 25.98-15h124.86a30 30 0 0 1 25.98 15L310.34 123.5a30 30 0 0 1 0 30z"/><linearGradient id="c" x1="50%" x2="50%" y1="3.125%" y2="97.125%"><stop offset="0" stop-color="red"/><stop offset="1" stop-color="#e0f"/></linearGradient><linearGradient id="d" x1="50%" x2="50%" y1="3.125%" y2="97.125%"><stop offset="0" stop-color="#ff0019"/><stop offset="1" stop-color="#ce00f3"/></linearGradient><linearGradient id="e" x1="50%" x2="50%" y1="3.125%" y2="97.125%"><stop offset="0" stop-color="#ff0031"/><stop offset="1" stop-color="#b000e6"/></linearGradient><linearGradient id="f" x1="50%" x2="50%" y1="3.125%" y2="97.125%"><stop offset="0" stop-color="#ff004a"/><stop offset="1" stop-color="#9400da"/></linearGradient><linearGradient id="g" x1="50%" x2="50%" y1="3.125%" y2="97.125%"><stop offset="0" stop-color="#ff0063"/><stop offset="1" stop-color="#7a00ce"/></linearGradient><linearGradient id="h" x1="50%" x2="50%" y1="3.125%" y2="97.125%"><stop offset="0" stop-color="#ff007c"/><stop offset="1" stop-color="#6200c1"/></linearGradient><linearGradient id="i" x1="50%" x2="50%" y1="3.125%" y2="97.125%"><stop offset="0" stop-color="#ff0094"/><stop offset="1" stop-color="#4d00b5"/></linearGradient><linearGradient id="j" x1="50%" x2="50%" y1="3.125%" y2="97.125%"><stop offset="0" stop-color="#ff00ad"/><stop offset="1" stop-color="#3900a8"/></linearGradient><linearGradient id="k" x1="50%" x2="50%" y1="3.125%" y2="97.125%"><stop offset="0" stop-color="#ff00c6"/><stop offset="1" stop-color="#28009c"/></linearGradient><linearGradient id="l" x1="50%" x2="50%" y1="3.125%" y2="97.125%"><stop offset="0" stop-color="#ff00df"/><stop offset="1" stop-color="#180090"/></linearGradient><mask id="b" fill="#fff"><use fill-rule="evenodd" xlink:href="#a"/></mask></defs><g fill="none" fill-rule="evenodd"><g transform="translate(-3 1)"><use stroke="#fff" stroke-width="2" xlink:href="#a"/><path d="M.5-20.5h332v312H.5z" fill="#ee9c3f" mask="url(#b)" stroke="#979797"/><g fill-rule="nonzero" mask="url(#b)"><path d="M-57.5-13h455v303h-455z" fill="red"/><g><path d="M0 0h455v303H0z" fill="url(#c)" transform="translate(-57.5 -13)"/><path d="M37.917 0H455v303H37.917z" fill="url(#d)" transform="translate(-57.5 -13)"/><path d="M75.833 0H455v303H75.833z" fill="url(#e)" transform="translate(-57.5 -13)"/><path d="M113.75 0H455v303H113.75z" fill="url(#f)" transform="translate(-57.5 -13)"/><path d="M151.667 0H455v303H151.667z" fill="url(#g)" transform="translate(-57.5 -13)"/><path d="M189.583 0H455v303H189.583z" fill="url(#h)" transform="translate(-57.5 -13)"/><path d="M227.5 0H455v303H227.5z" fill="url(#i)" transform="translate(-57.5 -13)"/><path d="M265.417 0H455v303H265.417z" fill="url(#j)" transform="translate(-57.5 -13)"/><path d="M303.333 0H455v303H303.333z" fill="url(#k)" transform="translate(-57.5 -13)"/><path d="M341.25 0H455v303H341.25z" fill="url(#l)" transform="translate(-57.5 -13)"/></g></g></g><g fill="#fff" fill-rule="nonzero"><path d="M133.071 95.571H118.43V80.93a2.928 2.928 0 1 0-5.858 0V95.57H97.93a2.928 2.928 0 1 0 0 5.858h14.642v14.642a2.928 2.928 0 1 0 5.858 0V101.43h14.642a2.928 2.928 0 1 0 0-5.858zm81-.571H178.93c-1.617 0-2.929 1.341-2.929 3s1.312 3 2.929 3h35.142c1.617 0 2.929-1.341 2.929-3s-1.312-3-2.929-3z"/><path d="M159.931 55H72v170h170V55zm-82.069 5.862h76.207v76.207H77.862zm0 158.276V142.93h76.207v76.207zm158.276 0H159.93V142.93h76.207zm-76.207-82.069V60.862h76.207v76.207z"/><path d="M178.929 192h35.142c1.617 0 2.929-1.341 2.929-3s-1.312-3-2.929-3H178.93c-1.617 0-2.929 1.341-2.929 3s1.312 3 2.929 3zm0-18h35.142c1.617 0 2.929-1.341 2.929-3s-1.312-3-2.929-3H178.93c-1.617 0-2.929 1.341-2.929 3s1.312 3 2.929 3zm-47.784-10.145a2.913 2.913 0 0 0-4.124 0L114.5 176.376l-12.52-12.52a2.913 2.913 0 0 0-4.125 0 2.913 2.913 0 0 0 0 4.123l12.521 12.521-12.52 12.521a2.913 2.913 0 0 0 0 4.124 2.909 2.909 0 0 0 2.061.855c.747 0 1.494-.286 2.062-.855l12.521-12.52 12.52 12.52a2.909 2.909 0 0 0 2.063.855c.746 0 1.493-.286 2.062-.855a2.913 2.913 0 0 0 0-4.124l-12.521-12.52 12.52-12.522a2.913 2.913 0 0 0 0-4.124z"/></g></g></svg>